<svg width="118" height="55" viewBox="0 0 118 55" fill="none" xmlns="http://www.w3.org/2000/svg">
<g id="Logo" clip-path="url(#clip0_44_2561)">
<path id="Vector" d="M52.1265 19.8807V23.2149C52.0434 23.3298 51.886 23.4801 51.654 23.6657C51.4222 23.8513 51.1159 24.0193 50.7353 24.1695C50.3547 24.3153 49.8975 24.3883 49.3637 24.3883C48.9 24.3883 48.4778 24.3043 48.0972 24.1363C47.7209 23.9684 47.3972 23.7231 47.1259 23.4005C46.8547 23.078 46.6446 22.6868 46.4959 22.2273C46.3516 21.7633 46.2794 21.2373 46.2794 20.6496V18.0445C46.2794 17.4789 46.3493 16.975 46.4893 16.5331C46.6294 16.0868 46.8306 15.7111 47.0932 15.4063C47.3556 15.0969 47.6706 14.8626 48.0381 14.7036C48.4056 14.5401 48.8146 14.4584 49.2652 14.4584C49.8515 14.4584 50.3481 14.5644 50.755 14.7765C51.1618 14.9886 51.479 15.2979 51.7065 15.7045C51.9385 16.1111 52.0784 16.6061 52.1265 17.1894H51.7787C51.7262 16.6989 51.6059 16.2746 51.4178 15.9167C51.234 15.5587 50.9671 15.2825 50.6172 15.0881C50.2715 14.8892 49.8209 14.7898 49.2652 14.7898C48.8541 14.7898 48.4844 14.8626 48.1563 15.0085C47.8324 15.1543 47.5568 15.3687 47.3293 15.6515C47.1019 15.9299 46.9269 16.2702 46.8044 16.6724C46.6862 17.0701 46.6272 17.523 46.6272 18.0312V20.6496C46.6272 21.1799 46.6884 21.655 46.8109 22.0748C46.9378 22.4902 47.1194 22.846 47.3556 23.142C47.5919 23.4382 47.8784 23.6635 48.2153 23.8182C48.5522 23.9728 48.9328 24.0502 49.3572 24.0502C49.7947 24.0502 50.1796 23.9884 50.5122 23.8646C50.8491 23.7364 51.1247 23.5928 51.339 23.4337C51.5534 23.2747 51.7022 23.1465 51.7852 23.0492V20.2188H49.3441V19.8807H52.1265ZM56.4706 23.5597L58.5379 17.0701H58.9119L56.241 25.4289C56.1972 25.5792 56.1404 25.7516 56.0703 25.946C56.0003 26.1405 55.9062 26.3282 55.7882 26.5095C55.6744 26.6906 55.5257 26.8409 55.342 26.9602C55.1581 27.0796 54.9285 27.1392 54.6529 27.1392C54.5872 27.1392 54.5063 27.1326 54.4101 27.1193C54.3138 27.1105 54.2438 27.0972 54.2 27.0796L54.1869 26.7547C54.2394 26.768 54.3116 26.7813 54.4035 26.7945C54.4953 26.8078 54.5566 26.8144 54.5872 26.8144C54.8366 26.8144 55.0444 26.7525 55.2106 26.6287C55.3769 26.505 55.5148 26.3349 55.6241 26.1184C55.7379 25.9019 55.8385 25.6565 55.926 25.3826L56.4706 23.5597ZM54.2591 17.0701L56.4969 23.8513L56.602 24.1828L56.3329 24.3817L53.8916 17.0701H54.2591ZM60.8476 18.608V24.2424H60.4867V17.0701H60.8476V18.608ZM60.795 20.0199L60.6244 19.6354C60.6595 19.2863 60.736 18.9504 60.8542 18.6279C60.9767 18.3053 61.1385 18.018 61.3397 17.7661C61.5411 17.5098 61.7773 17.3087 62.0485 17.1629C62.3198 17.0127 62.6216 16.9375 62.9542 16.9375C63.256 16.9375 63.5273 16.9861 63.7679 17.0833C64.0085 17.1761 64.212 17.3242 64.3782 17.5275C64.5444 17.7263 64.6713 17.9871 64.7589 18.3096C64.8463 18.6322 64.8901 19.0212 64.8901 19.4764V24.2424H64.5488V19.4631C64.5488 18.8842 64.4789 18.4378 64.3389 18.124C64.1988 17.8059 64.0063 17.5849 63.7613 17.4611C63.5164 17.333 63.2341 17.2689 62.9148 17.2689C62.5429 17.2689 62.2235 17.3706 61.9566 17.5738C61.6942 17.7772 61.4776 18.0312 61.3069 18.3362C61.1407 18.6367 61.016 18.9416 60.9329 19.2509C60.8542 19.5559 60.8082 19.8122 60.795 20.0199ZM64.8901 19.4565L64.6539 19.231C64.6888 18.9305 64.7697 18.6433 64.8966 18.3694C65.0236 18.0909 65.1876 17.8456 65.3888 17.6336C65.5945 17.417 65.8329 17.2468 66.1041 17.1231C66.3797 16.9994 66.6839 16.9375 67.0163 16.9375C67.3226 16.9375 67.5961 16.9883 67.8366 17.0899C68.0773 17.1872 68.2807 17.3419 68.4469 17.5539C68.6132 17.7616 68.7401 18.0357 68.8276 18.3759C68.9151 18.7118 68.9589 19.1184 68.9589 19.5956V24.2424H68.6044V19.5956C68.6044 18.9813 68.5345 18.5063 68.3945 18.1705C68.2588 17.8302 68.0685 17.5938 67.8235 17.4611C67.5785 17.3286 67.2964 17.2645 66.977 17.2689C66.6314 17.2734 66.3294 17.3529 66.0713 17.5076C65.8176 17.6623 65.6054 17.8567 65.4348 18.0909C65.2641 18.3207 65.1329 18.5593 65.041 18.8068C64.9536 19.0543 64.9032 19.2708 64.8901 19.4565Z" fill="white"/>
<path id="Vector_2" d="M46.2979 36.6089H47.886C47.8554 37.3071 47.7154 37.9015 47.466 38.392C47.2166 38.8781 46.8579 39.2493 46.3898 39.5056C45.926 39.762 45.3595 39.8901 44.6901 39.8901C44.1825 39.8901 43.7276 39.7973 43.3251 39.6117C42.927 39.4261 42.5879 39.1588 42.3079 38.8097C42.0279 38.4561 41.8136 38.0252 41.6648 37.5171C41.5204 37.0089 41.4482 36.4321 41.4482 35.7869V34.0767C41.4482 33.4315 41.5226 32.8548 41.6714 32.3466C41.8245 31.8383 42.0432 31.4075 42.3276 31.0539C42.612 30.7004 42.9576 30.4331 43.3644 30.2519C43.7757 30.0663 44.2395 29.9735 44.7557 29.9735C45.4163 29.9735 45.972 30.1016 46.4226 30.3579C46.8732 30.6143 47.221 30.9898 47.466 31.4849C47.711 31.9798 47.8532 32.583 47.8926 33.2945H46.3044C46.2825 32.8128 46.217 32.4283 46.1076 32.1411C46.0026 31.8494 45.8408 31.6395 45.622 31.5114C45.4076 31.3832 45.1188 31.3192 44.7557 31.3192C44.4538 31.3192 44.1935 31.3766 43.9748 31.4915C43.7604 31.6064 43.5832 31.7787 43.4433 32.0085C43.3076 32.2339 43.2048 32.519 43.1348 32.8636C43.0691 33.2039 43.0363 33.6039 43.0363 34.0634V35.7869C43.0363 36.2288 43.0648 36.6199 43.1217 36.9602C43.1785 37.3004 43.2704 37.5899 43.3973 37.8285C43.5242 38.0628 43.6926 38.2417 43.9026 38.3656C44.1126 38.4848 44.3751 38.5445 44.6901 38.5445C45.0663 38.5445 45.366 38.4848 45.5891 38.3656C45.8167 38.2462 45.985 38.0451 46.0945 37.7623C46.2038 37.4795 46.2717 37.095 46.2979 36.6089ZM52.1682 36.463V35.8863C52.1682 35.3295 52.236 34.8368 52.3716 34.4081C52.5073 33.9794 52.6998 33.6215 52.9492 33.3343C53.2029 33.0426 53.5004 32.8238 53.8416 32.678C54.1829 32.5278 54.5591 32.4526 54.9704 32.4526C55.3904 32.4526 55.771 32.5278 56.1123 32.678C56.4579 32.8238 56.7554 33.0426 57.0048 33.3343C57.2585 33.6215 57.4532 33.9794 57.5889 34.4081C57.7244 34.8368 57.7923 35.3295 57.7923 35.8863V36.463C57.7923 37.0199 57.7244 37.5126 57.5889 37.9413C57.4532 38.3699 57.2585 38.7301 57.0048 39.0218C56.7554 39.309 56.4601 39.5255 56.1188 39.6714C55.7775 39.8172 55.3991 39.8901 54.9835 39.8901C54.5722 39.8901 54.1938 39.8172 53.8482 39.6714C53.5069 39.5255 53.2094 39.309 52.9557 39.0218C52.702 38.7301 52.5073 38.3699 52.3716 37.9413C52.236 37.5126 52.1682 37.0199 52.1682 36.463ZM53.6973 35.8863V36.463C53.6973 36.821 53.7279 37.1347 53.7892 37.4043C53.8504 37.6695 53.9379 37.8904 54.0516 38.0672C54.1654 38.244 54.301 38.3765 54.4585 38.465C54.616 38.5533 54.791 38.5975 54.9835 38.5975C55.1979 38.5975 55.3838 38.5533 55.5413 38.465C55.7032 38.3765 55.8367 38.244 55.9416 38.0672C56.051 37.8904 56.132 37.6695 56.1845 37.4043C56.237 37.1347 56.2632 36.821 56.2632 36.463V35.8863C56.2632 35.5328 56.2326 35.2235 56.1713 34.9583C56.1101 34.6888 56.0226 34.4655 55.9089 34.2889C55.7951 34.1076 55.6572 33.9728 55.4954 33.8845C55.3378 33.7961 55.1628 33.7518 54.9704 33.7518C54.7823 33.7518 54.6094 33.7961 54.452 33.8845C54.2988 33.9728 54.1654 34.1076 54.0516 34.2889C53.9379 34.4655 53.8504 34.6888 53.7892 34.9583C53.7279 35.2235 53.6973 35.5328 53.6973 35.8863ZM63.866 33.9706V39.7576H62.3369V32.5852H63.7938L63.866 33.9706ZM65.5788 32.5388L65.5722 34.0634C65.4848 34.0413 65.3907 34.0281 65.2901 34.0236C65.1938 34.0148 65.0975 34.0104 65.0013 34.0104C64.7912 34.0104 64.6097 34.048 64.4566 34.1231C64.3035 34.1982 64.1745 34.3065 64.0694 34.4479C63.9644 34.5893 63.8813 34.7595 63.82 34.9583C63.7632 35.1572 63.7281 35.3826 63.715 35.6344L63.3869 35.6477C63.3869 35.197 63.4219 34.7793 63.4919 34.3948C63.5619 34.006 63.6669 33.668 63.8069 33.3806C63.9513 33.089 64.1307 32.8614 64.345 32.6979C64.5594 32.5344 64.8088 32.4526 65.0932 32.4526C65.1719 32.4526 65.2616 32.4615 65.3623 32.4791C65.4629 32.4969 65.5351 32.5167 65.5788 32.5388ZM72.4401 39.8901C71.9806 39.8901 71.5715 39.8217 71.2128 39.6846C70.854 39.5433 70.55 39.3355 70.3006 39.0615C70.0513 38.7831 69.8609 38.4428 69.7297 38.0407C69.5984 37.6341 69.5328 37.1635 69.5328 36.6287V35.9394C69.5328 35.334 69.6007 34.8125 69.7363 34.375C69.8763 33.9331 70.0688 33.5707 70.3138 33.2878C70.5587 33.0051 70.8475 32.7951 71.1801 32.6581C71.5169 32.5211 71.8822 32.4526 72.276 32.4526C72.7222 32.4526 73.1094 32.5256 73.4375 32.6714C73.7656 32.8172 74.0347 33.036 74.2447 33.3276C74.4591 33.6193 74.6166 33.9794 74.7172 34.4081C74.8222 34.8368 74.8747 35.3295 74.8747 35.8863V36.6619H70.2679V35.4953H73.3653V35.3295C73.3566 35.0026 73.3172 34.7219 73.2472 34.4876C73.1772 34.249 73.0635 34.0679 72.9059 33.9441C72.7528 33.8159 72.5407 33.7518 72.2694 33.7518C72.0725 33.7518 71.8976 33.7895 71.7444 33.8646C71.5912 33.9397 71.4644 34.0613 71.3638 34.2291C71.2675 34.3971 71.1931 34.6224 71.1406 34.9053C71.0882 35.1837 71.0619 35.5284 71.0619 35.9394V36.6287C71.0619 36.9867 71.0925 37.2895 71.1538 37.537C71.2194 37.7844 71.3156 37.9877 71.4425 38.1468C71.5694 38.3015 71.7225 38.4164 71.9019 38.4914C72.0856 38.5622 72.2978 38.5975 72.5385 38.5975C72.8928 38.5975 73.1969 38.5313 73.4506 38.3986C73.7088 38.2617 73.9319 38.0849 74.1201 37.8684L74.796 38.8163C74.6691 38.9886 74.4985 39.1588 74.2841 39.3267C74.0697 39.4902 73.8094 39.625 73.5032 39.7311C73.2012 39.8371 72.8469 39.8901 72.4401 39.8901Z" fill="white"/>
<path id="Vector_3" fill-rule="evenodd" clip-rule="evenodd" d="M82.5201 5.8182C82.5201 2.87267 84.884 0.484863 87.8001 0.484863H95.7201C98.6365 0.484863 101 2.87267 101 5.8182V48.4849C101 51.4304 98.6365 53.8182 95.7201 53.8182H87.8001C84.884 53.8182 82.5201 51.4304 82.5201 48.4849V5.8182ZM95.7201 5.8182H87.8001V48.4849H95.7201V5.8182Z" fill="#D8042A"/>
<path id="Vector_4" fill-rule="evenodd" clip-rule="evenodd" d="M95.72 11.1515C95.72 9.67877 96.902 8.48486 98.36 8.48486H106.28C107.681 8.48486 109.024 9.04676 110.013 10.0469C111.004 11.0472 111.56 12.4037 111.56 13.8182V40.4849C111.56 41.8994 111.004 43.2559 110.013 44.2561C109.024 45.2563 107.681 45.8182 106.28 45.8182H98.36C96.902 45.8182 95.72 44.6243 95.72 43.1515C95.72 41.6788 96.902 40.4849 98.36 40.4849H106.28V13.8182H98.36C96.902 13.8182 95.72 12.6243 95.72 11.1515Z" fill="#D8042A"/>
<path id="Vector_5" fill-rule="evenodd" clip-rule="evenodd" d="M106.28 27.1515C106.28 25.6788 107.462 24.4849 108.92 24.4849H114.2C115.658 24.4849 116.84 25.6788 116.84 27.1515C116.84 28.6243 115.658 29.8182 114.2 29.8182H108.92C107.462 29.8182 106.28 28.6243 106.28 27.1515Z" fill="#D8042A"/>
<path id="Vector_6" fill-rule="evenodd" clip-rule="evenodd" d="M15.32 6.30306C15.32 3.35754 17.6839 0.969727 20.6 0.969727H28.52C31.4361 0.969727 33.8 3.35754 33.8 6.30306V48.9697C33.8 51.9153 31.4361 54.3031 28.52 54.3031H20.6C17.6839 54.3031 15.32 51.9153 15.32 48.9697V6.30306ZM28.52 6.30306H20.6V48.9697H28.52V6.30306Z" fill="#D8042A"/>
<path id="Vector_7" fill-rule="evenodd" clip-rule="evenodd" d="M6.30651 10.5318C7.29671 9.53163 8.6397 8.96973 10.04 8.96973H17.96C19.4181 8.96973 20.6 10.1636 20.6 11.6364C20.6 13.1092 19.4181 14.3031 17.96 14.3031H10.04V40.9697H17.96C19.4181 40.9697 20.6 42.1636 20.6 43.6364C20.6 45.1092 19.4181 46.3031 17.96 46.3031H10.04C8.6397 46.3031 7.29672 45.7411 6.30651 44.741C5.31632 43.7407 4.76004 42.3842 4.76004 40.9697V14.3031C4.76004 12.8886 5.31632 11.5321 6.30651 10.5318Z" fill="#D8042A"/>
</g>
<defs>
<clipPath id="clip0_44_2561">
<rect width="116.16" height="54.303" fill="white" transform="translate(0.920044)"/>
</clipPath>
</defs>
</svg>
