<svg width="328" height="112" viewBox="0 0 328 112" fill="none" xmlns="http://www.w3.org/2000/svg">
<g clip-path="url(#clip0_709_1805)">
<path d="M316 0H12C5.37258 0 0 5.37258 0 12V100C0 106.627 5.37258 112 12 112H316C322.627 112 328 106.627 328 100V12C328 5.37258 322.627 0 316 0Z" fill="#201F24"/>
<mask id="mask0_709_1805" style="mask-type:luminance" maskUnits="userSpaceOnUse" x="0" y="0" width="328" height="112">
<path d="M316 0H12C5.37258 0 0 5.37258 0 12V100C0 106.627 5.37258 112 12 112H316C322.627 112 328 106.627 328 100V12C328 5.37258 322.627 0 316 0Z" fill="white"/>
</mask>
<g mask="url(#mask0_709_1805)">
<path d="M22.48 109H12V115H22.48V109ZM316 109H305.52V115H316V109ZM325 100C325 104.97 320.97 109 316 109V115C324.28 115 331 108.28 331 100H325ZM325 96.97V100H331V96.97H325ZM325 12V15.03H331V12H325ZM316 3C320.97 3 325 7.03 325 12H331C331 3.72 324.28 -3 316 -3V3ZM305.52 3H316V-3H305.52V3ZM12 3H22.48V-3H12V3ZM3 12C3 7.03 7.03 3 12 3V-3C3.72 -3 -3 3.72 -3 12H3ZM3 15.03V12H-3V15.03H3ZM3 100V96.97H-3V100H3ZM12 109C7.03 109 3 104.97 3 100H-3C-3 108.28 3.72 115 12 115V109ZM22.48 115C24.14 115 25.48 113.66 25.48 112C25.48 110.34 24.14 109 22.48 109V115ZM305.51 109C303.85 109 302.51 110.34 302.51 112C302.51 113.66 303.85 115 305.51 115V109ZM330.99 96.97C330.99 95.31 329.65 93.97 327.99 93.97C326.33 93.97 324.99 95.31 324.99 96.97H330.99ZM324.99 15.04C324.99 16.7 326.33 18.04 327.99 18.04C329.65 18.04 330.99 16.7 330.99 15.04H324.99ZM305.51 -2.99C303.85 -2.99 302.51 -1.65 302.51 0.00999999C302.51 1.67 303.85 3.01 305.51 3.01V-3V-2.99ZM22.48 3C24.14 3 25.48 1.66 25.48 0C25.48 -1.66 24.14 -3 22.48 -3V3ZM-3 15.03C-3 16.69 -1.66 18.03 0 18.03C1.66 18.03 3 16.69 3 15.03H-3ZM3 96.97C3 95.31 1.66 93.97 0 93.97C-1.66 93.97 -3 95.31 -3 96.97H3ZM22.48 110.5H12V113.5H22.48V110.5ZM316 110.5H305.52V113.5H316V110.5ZM326.5 100C326.5 105.8 321.8 110.5 316 110.5V113.5C323.46 113.5 329.5 107.46 329.5 100H326.5ZM326.5 96.97V100H329.5V96.97H326.5ZM326.5 12V15.03H329.5V12H326.5ZM316 1.5C321.8 1.5 326.5 6.2 326.5 12H329.5C329.5 4.54 323.46 -1.5 316 -1.5V1.5ZM305.52 1.5H316V-1.5H305.52V1.5ZM12 1.5H22.48V-1.5H12V1.5ZM1.5 12C1.5 6.2 6.2 1.5 12 1.5V-1.5C4.54 -1.5 -1.5 4.54 -1.5 12H1.5ZM1.5 15.03V12H-1.5V15.03H1.5ZM1.5 100V96.97H-1.5V100H1.5ZM12 110.5C6.2 110.5 1.5 105.8 1.5 100H-1.5C-1.5 107.46 4.54 113.5 12 113.5V110.5ZM22.48 113.5C23.31 113.5 23.98 112.83 23.98 112C23.98 111.17 23.31 110.5 22.48 110.5V113.5ZM305.51 110.5C304.68 110.5 304.01 111.17 304.01 112C304.01 112.83 304.68 113.5 305.51 113.5V110.5ZM329.49 96.97C329.49 96.14 328.82 95.47 327.99 95.47C327.16 95.47 326.49 96.14 326.49 96.97H329.49ZM326.49 15.04C326.49 15.87 327.16 16.54 327.99 16.54C328.82 16.54 329.49 15.87 329.49 15.04H326.49ZM305.51 -1.49C304.68 -1.49 304.01 -0.82 304.01 0.00999999C304.01 0.84 304.68 1.51 305.51 1.51V-1.5V-1.49ZM22.48 1.5C23.31 1.5 23.98 0.83 23.98 0C23.98 -0.83 23.31 -1.5 22.48 -1.5V1.5ZM-1.5 15.03C-1.5 15.86 -0.83 16.53 0 16.53C0.83 16.53 1.5 15.86 1.5 15.03H-1.5ZM1.5 96.97C1.5 96.14 0.83 95.47 0 95.47C-0.83 95.47 -1.5 96.14 -1.5 96.97H1.5Z" fill="#E2E1E6"/>
</g>
</g>
<defs>
<clipPath id="clip0_709_1805">
<rect width="328" height="112" fill="white"/>
</clipPath>
</defs>
</svg>
