<svg width="60" height="60" viewBox="0 0 60 60" fill="none" xmlns="http://www.w3.org/2000/svg">
<path d="M15 52.5H21.5625C22.0598 52.5 22.5367 52.3025 22.8883 51.9508C23.24 51.5992 23.4375 51.1223 23.4375 50.625C23.4375 50.1277 23.24 49.6508 22.8883 49.2992C22.5367 48.9475 22.0598 48.75 21.5625 48.75H15C14.0054 48.75 13.0516 48.3549 12.3483 47.6516C11.6451 46.9484 11.25 45.9946 11.25 45V38.4375C11.25 37.9402 11.0525 37.4633 10.7008 37.1117C10.3492 36.76 9.87228 36.5625 9.375 36.5625C8.87772 36.5625 8.40081 36.76 8.04918 37.1117C7.69754 37.4633 7.5 37.9402 7.5 38.4375V45C7.50223 46.9884 8.29313 48.8948 9.69917 50.3008C11.1052 51.7069 13.0116 52.4978 15 52.5Z" fill="#E2E1E6"/>
<path d="M50.625 36.5625C50.1277 36.5625 49.6508 36.76 49.2992 37.1117C48.9475 37.4633 48.75 37.9402 48.75 38.4375V45C48.75 45.9946 48.3549 46.9484 47.6516 47.6516C46.9484 48.3549 45.9946 48.75 45 48.75H38.4375C37.9402 48.75 37.4633 48.9475 37.1117 49.2992C36.76 49.6508 36.5625 50.1277 36.5625 50.625C36.5625 51.1223 36.76 51.5992 37.1117 51.9508C37.4633 52.3025 37.9402 52.5 38.4375 52.5H45C46.9884 52.4978 48.8948 51.7069 50.3008 50.3008C51.7069 48.8948 52.4978 46.9884 52.5 45V38.4375C52.5 37.9402 52.3025 37.4633 51.9508 37.1117C51.5992 36.76 51.1223 36.5625 50.625 36.5625Z" fill="#E2E1E6"/>
<path d="M45 7.5H38.4375C37.9402 7.5 37.4633 7.69754 37.1117 8.04918C36.76 8.40081 36.5625 8.87772 36.5625 9.375C36.5625 9.87228 36.76 10.3492 37.1117 10.7008C37.4633 11.0525 37.9402 11.25 38.4375 11.25H45C45.9946 11.25 46.9484 11.6451 47.6516 12.3483C48.3549 13.0516 48.75 14.0054 48.75 15V21.5625C48.75 22.0598 48.9475 22.5367 49.2992 22.8883C49.6508 23.24 50.1277 23.4375 50.625 23.4375C51.1223 23.4375 51.5992 23.24 51.9508 22.8883C52.3025 22.5367 52.5 22.0598 52.5 21.5625V15C52.4978 13.0116 51.7069 11.1052 50.3008 9.69917C48.8948 8.29313 46.9884 7.50223 45 7.5Z" fill="#E2E1E6"/>
<path d="M9.375 23.4375C9.87228 23.4375 10.3492 23.24 10.7008 22.8883C11.0525 22.5367 11.25 22.0598 11.25 21.5625V15C11.25 14.0054 11.6451 13.0516 12.3483 12.3483C13.0516 11.6451 14.0054 11.25 15 11.25H21.5625C22.0598 11.25 22.5367 11.0525 22.8883 10.7008C23.24 10.3492 23.4375 9.87228 23.4375 9.375C23.4375 8.87772 23.24 8.40081 22.8883 8.04918C22.5367 7.69754 22.0598 7.5 21.5625 7.5H15C13.0116 7.50223 11.1052 8.29313 9.69917 9.69917C8.29313 11.1052 7.50223 13.0116 7.5 15V21.5625C7.5 22.0598 7.69754 22.5367 8.04918 22.8883C8.40081 23.24 8.87772 23.4375 9.375 23.4375Z" fill="#E2E1E6"/>
<path d="M24.6253 15H18.75C17.7554 15 16.8016 15.3951 16.0984 16.0984C15.3951 16.8016 15 17.7554 15 18.75V24.6253C15 25.6199 15.3951 26.5737 16.0984 27.277C16.8016 27.9802 17.7554 28.3753 18.75 28.3753H24.6253C25.6199 28.3753 26.5737 27.9802 27.277 27.277C27.9802 26.5737 28.3753 25.6199 28.3753 24.6253V18.75C28.3753 17.7554 27.9802 16.8016 27.277 16.0984C26.5737 15.3951 25.6199 15 24.6253 15ZM18.75 24.6253V18.75H24.6253V24.6253H18.75Z" fill="#E2E1E6"/>
<path d="M35.3747 28.3753H41.25C42.2446 28.3753 43.1984 27.9802 43.9016 27.277C44.6049 26.5737 45 25.6199 45 24.6253V18.75C45 17.7554 44.6049 16.8016 43.9016 16.0984C43.1984 15.3951 42.2446 15 41.25 15H35.3747C34.3801 15 33.4263 15.3951 32.723 16.0984C32.0198 16.8016 31.6247 17.7554 31.6247 18.75V24.6253C31.6247 25.6199 32.0198 26.5737 32.723 27.277C33.4263 27.9802 34.3801 28.3753 35.3747 28.3753ZM35.3747 18.75H41.25V24.6253H35.3747V18.75Z" fill="#E2E1E6"/>
<path d="M28.3753 41.25V35.3747C28.3753 34.3801 27.9802 33.4263 27.277 32.723C26.5737 32.0198 25.6199 31.6247 24.6253 31.6247H18.75C17.7554 31.6247 16.8016 32.0198 16.0984 32.723C15.3951 33.4263 15 34.3801 15 35.3747V41.25C15 42.2446 15.3951 43.1984 16.0984 43.9017C16.8016 44.6049 17.7554 45 18.75 45H24.6253C25.6199 45 26.5737 44.6049 27.277 43.9017C27.9802 43.1984 28.3753 42.2446 28.3753 41.25ZM18.75 41.25V35.3747H24.6253V41.25H18.75Z" fill="#E2E1E6"/>
<path d="M31.6247 41.25C31.6247 42.2446 32.0198 43.1984 32.723 43.9017C33.4263 44.6049 34.3801 45 35.3747 45H41.25C42.2446 45 43.1984 44.6049 43.9016 43.9017C44.6049 43.1984 45 42.2446 45 41.25V35.3747C45 34.3801 44.6049 33.4263 43.9016 32.723C43.1984 32.0198 42.2446 31.6247 41.25 31.6247H35.3747C34.3801 31.6247 33.4263 32.0198 32.723 32.723C32.0198 33.4263 31.6247 34.3801 31.6247 35.3747V41.25ZM35.3747 35.3747H41.25V41.25H35.3747V35.3747Z" fill="#E2E1E6"/>
</svg>
