<svg width="120" height="120" viewBox="0 0 120 120" fill="none" xmlns="http://www.w3.org/2000/svg">
<circle cx="60" cy="60" r="57" stroke="#60992D" stroke-width="6"/>
<path d="M53.7474 74.5263C52.9102 74.5256 52.1075 74.1924 51.5158 73.6L41.1053 63.1579C40.5475 62.5593 40.2438 61.7675 40.2582 60.9494C40.2727 60.1313 40.6041 59.3507 41.1827 58.7721C41.7613 58.1935 42.5418 57.8621 43.3599 57.8477C44.178 57.8333 44.9698 58.1369 45.5685 58.6947L53.7474 66.8737L74.4316 46.2316C75.0235 45.6328 75.829 45.2936 76.6709 45.2886C77.5128 45.2837 78.3223 45.6134 78.9211 46.2053C79.5199 46.7971 79.8591 47.6026 79.864 48.4446C79.869 49.2865 79.5393 50.0959 78.9474 50.6947L55.9895 73.6C55.6953 73.8946 55.3457 74.1281 54.9609 74.2871C54.5762 74.446 54.1637 74.5273 53.7474 74.5263Z" fill="#60992D"/>
</svg>
