<svg width="60" height="60" viewBox="0 0 60 60" fill="none" xmlns="http://www.w3.org/2000/svg">
    <g id="noun-image-6393403 1">
        <path id="Vector"
            d="M51.347 53.8873H8.65325C6.75688 53.8848 4.9389 53.1304 3.59796 51.7895C2.25703 50.4485 1.5026 48.6305 1.50012 46.7342V13.2654C1.5026 11.3691 2.25703 9.55108 3.59796 8.21015C4.9389 6.86921 6.75688 6.11479 8.65325 6.1123H51.347C53.2434 6.11479 55.0613 6.86921 56.4023 8.21015C57.7432 9.55108 58.4976 11.3691 58.5001 13.2654V46.7342C58.4976 48.6305 57.7432 50.4485 56.4023 51.7895C55.0613 53.1304 53.2434 53.8848 51.347 53.8873ZM8.65325 8.8873C7.5028 8.88978 6.40019 9.34789 5.5867 10.1614C4.77321 10.9749 4.3151 12.0775 4.31262 13.2279V46.6967C4.3151 47.8471 4.77321 48.9497 5.5867 49.7632C6.40019 50.5767 7.5028 51.0348 8.65325 51.0373H51.347C52.4974 51.0348 53.6001 50.5767 54.4135 49.7632C55.227 48.9497 55.6851 47.8471 55.6876 46.6967V13.2654C55.6851 12.115 55.227 11.0124 54.4135 10.1989C53.6001 9.38539 52.4974 8.92728 51.347 8.9248L8.65325 8.8873ZM49.2657 46.9311H10.7345C10.1438 46.9307 9.56553 46.7612 9.06807 46.4427C8.57061 46.1241 8.17475 45.6698 7.92727 45.1334C7.67979 44.5971 7.59104 44.0011 7.67151 43.4159C7.75198 42.8307 7.9983 42.2807 8.38137 41.8311L19.5751 28.6498C19.8636 28.3064 20.2238 28.0303 20.6302 27.8408C21.0367 27.6514 21.4798 27.5531 21.9282 27.5529C22.3781 27.553 22.8225 27.6512 23.2306 27.8406C23.6386 28.0301 24.0004 28.3062 24.2907 28.6498L33.4782 39.4592C33.502 39.4885 33.532 39.5121 33.5661 39.5283C33.6001 39.5446 33.6374 39.553 33.6751 39.5529C33.715 39.555 33.7548 39.5485 33.792 39.534C33.8292 39.5194 33.8629 39.4971 33.8907 39.4686L40.3126 33.0842C40.6224 32.7758 40.9938 32.5362 41.4025 32.3813C41.8112 32.2264 42.2481 32.1596 42.6844 32.1853C43.1208 32.211 43.5468 32.3285 43.9345 32.5303C44.3223 32.732 44.6631 33.0134 44.9345 33.3561L51.722 41.9061C52.0858 42.3613 52.3136 42.9101 52.3792 43.4892C52.4447 44.0682 52.3454 44.654 52.0927 45.1791C51.8399 45.7042 51.444 46.1472 50.9505 46.4572C50.457 46.7671 49.886 46.9314 49.3032 46.9311H49.2657ZM21.9282 30.3654C21.8869 30.3657 21.8462 30.3751 21.8089 30.393C21.7717 30.4108 21.7388 30.4366 21.7126 30.4686L10.5189 43.6498C10.4869 43.6933 10.4696 43.7458 10.4696 43.7998C10.4696 43.8538 10.4869 43.9063 10.5189 43.9498C10.5371 44.0016 10.5716 44.046 10.6173 44.0764C10.6629 44.1069 10.7172 44.1217 10.772 44.1186H49.3032C49.3564 44.1196 49.4087 44.1051 49.4537 44.0768C49.4987 44.0485 49.5344 44.0076 49.5564 43.9592C49.5884 43.9157 49.6056 43.8632 49.6056 43.8092C49.6056 43.7552 49.5884 43.7027 49.5564 43.6592L42.7689 35.0998C42.7451 35.0675 42.714 35.0413 42.6782 35.0234C42.6423 35.0055 42.6027 34.9963 42.5626 34.9967C42.5211 34.9918 42.479 34.9969 42.4399 35.0116C42.4008 35.0263 42.3657 35.0501 42.3376 35.0811L35.9532 41.4654C35.6516 41.7713 35.2906 42.0123 34.8923 42.1736C34.4941 42.3348 34.0671 42.4128 33.6376 42.4029C33.193 42.3873 32.757 42.2762 32.3591 42.0772C31.9611 41.8783 31.6107 41.5961 31.3314 41.2498L22.1532 30.4686C22.1256 30.4359 22.0912 30.4097 22.0523 30.3918C22.0134 30.374 21.971 30.365 21.9282 30.3654ZM44.9626 28.4904C43.6128 28.4904 42.2932 28.0902 41.1708 27.3402C40.0485 26.5903 39.1737 25.5244 38.6571 24.2772C38.1406 23.0301 38.0054 21.6579 38.2688 20.3339C38.5321 19.01 39.1821 17.7939 40.1366 16.8394C41.0911 15.8849 42.3072 15.2349 43.6311 14.9716C44.955 14.7082 46.3273 14.8434 47.5744 15.36C48.8215 15.8765 49.8875 16.7513 50.6374 17.8737C51.3873 18.996 51.7876 20.3156 51.7876 21.6654C51.7827 23.4667 51.0669 25.1932 49.7959 26.4695C48.5248 27.7458 46.8013 28.4687 45.0001 28.4811L44.9626 28.4904ZM44.9626 17.6623C44.1686 17.6623 43.3925 17.8979 42.7324 18.3392C42.0724 18.7805 41.5581 19.4077 41.2547 20.1415C40.9512 20.8752 40.8723 21.6825 41.0279 22.4611C41.1835 23.2397 41.5666 23.9546 42.1287 24.5154C42.6908 25.0762 43.4066 25.4576 44.1856 25.6113C44.9645 25.7651 45.7716 25.6843 46.5046 25.3792C47.2377 25.074 47.8637 24.5583 48.3035 23.8972C48.7432 23.2361 48.977 22.4594 48.9751 21.6654C48.9752 20.6077 48.5576 19.5928 47.8132 18.8413C47.0688 18.0899 46.0578 17.6628 45.0001 17.6529L44.9626 17.6623Z"
            fill="#7D7C8A" />
    </g>
</svg>
