<svg width="70" height="60" viewBox="0 0 70 60" fill="none" xmlns="http://www.w3.org/2000/svg">
    <path
        d="M36.7091 14.7038C36.3149 14.5874 36.0904 14.1775 36.208 13.7875C37.5772 9.23509 41.8415 5.89258 46.9155 5.89258C47.3266 5.89258 47.6601 6.22256 47.6601 6.62939C47.6601 7.03621 47.3266 7.3662 46.9155 7.3662C42.6629 7.3662 38.8468 10.1792 37.6352 14.2074C37.5187 14.5968 37.1048 14.8206 36.7091 14.7038Z"
        fill="#7D7C8A" />
    <path
        d="M57.3407 42.7326H52.8727C52.4616 42.7326 52.128 42.4026 52.128 41.9958C52.128 41.589 52.4615 41.259 52.8727 41.259H57.3407C63.4997 41.259 68.5109 36.3008 68.5109 30.2069C68.5109 24.1131 63.4997 19.1549 57.3407 19.1549H57.2333C57.0173 19.1549 56.812 19.0623 56.6705 18.9007C56.529 18.7391 56.4652 18.5249 56.4961 18.3134C56.5626 17.8545 56.5961 17.3934 56.5961 16.9445C56.5961 11.6632 52.2529 7.36602 46.9152 7.36602C44.8386 7.36602 42.8583 8.00809 41.188 9.22327C40.821 9.49011 40.2997 9.37169 40.0875 8.97223C35.3572 0.0601131 23.0022 -1.13669 16.5968 6.61607C13.8984 9.8822 12.8382 14.1309 13.6878 18.2718C13.7814 18.7292 13.4277 19.1555 12.958 19.1555H12.6596C6.50062 19.1555 1.48943 24.1137 1.48943 30.2075C1.48943 36.3013 6.50062 41.2595 12.6596 41.2595H17.1276C17.5388 41.2595 17.8723 41.5895 17.8723 41.9963C17.8723 42.4032 17.5388 42.7332 17.1276 42.7332H12.6596C5.67925 42.7332 0 37.114 0 30.2075C0 23.4947 5.36483 17.9981 12.075 17.6949C11.4447 13.3988 12.65 9.06536 15.4436 5.6835C22.3015 -2.61762 35.4443 -1.68717 41 7.56918C42.7724 6.46976 44.8005 5.893 46.9149 5.893C53.3819 5.893 58.5064 11.3391 58.058 17.7018C64.7064 18.0707 70 23.5383 70 30.2069C70 37.114 64.3208 42.7326 57.3404 42.7326L57.3407 42.7326Z"
        fill="#7D7C8A" />
    <path
        d="M34.8999 59.9998C24.6344 59.9998 16.2827 51.7365 16.2827 41.5795C16.2827 31.4226 24.6343 23.1592 34.8999 23.1592C45.1655 23.1592 53.5171 31.4224 53.5171 41.5795C53.5171 51.7364 45.1655 59.9998 34.8999 59.9998V59.9998ZM34.8999 24.6331C25.4558 24.6331 17.7724 32.2354 17.7724 41.5795C17.7724 50.9237 25.456 58.5258 34.8999 58.5258C44.3438 58.5258 52.0274 50.9235 52.0274 41.5795C52.0274 32.2353 44.3438 24.6331 34.8999 24.6331V24.6331Z"
        fill="#7D7C8A" />
    <path
        d="M34.5453 48.9952C34.5453 49.3774 34.8582 49.6846 35.2405 49.6846C35.6228 49.6846 35.9357 49.3778 35.9357 48.9952V34.9701C35.9357 34.5879 35.6229 34.2807 35.2405 34.2807C34.8581 34.2807 34.5453 34.5879 34.5453 34.9701V48.9952Z"
        fill="#7D7C8A" stroke="#7D7C8A" stroke-width="0.3" />
    <path
        d="M39.1112 39.7746C39.2469 39.9088 39.4252 39.9759 39.6022 39.9759H39.6023C39.779 39.9759 39.9574 39.9094 40.0933 39.7745C40.3656 39.505 40.3656 39.0679 40.0932 38.7984L35.7318 34.4831C35.4604 34.2146 35.0209 34.2144 34.7497 34.4831C34.7497 34.4831 34.7497 34.4831 34.7496 34.4832L30.3882 38.7984C30.1159 39.0679 30.1159 39.5051 30.3882 39.7746C30.6596 40.0431 31.0992 40.0433 31.3703 39.7745C31.3704 39.7745 31.3704 39.7745 31.3704 39.7745L35.2408 35.945L39.1112 39.7746Z"
        fill="#7D7C8A" stroke="#7D7C8A" stroke-width="0.3" />
</svg>
